<svg xmlns="http://www.w3.org/2000/svg" xmlns:xlink="http://www.w3.org/1999/xlink" width="20" height="20" viewBox="0 0 20 20">
  <defs>
    <clipPath id="clip-path">
      <rect id="사각형_18233" data-name="사각형 18233" width="20" height="20" transform="translate(-10824 -17679)" fill="none"/>
    </clipPath>
  </defs>
  <g id="ic_filter_list_on" transform="translate(10824 17679)" clip-path="url(#clip-path)">
    <g id="그룹_48477" data-name="그룹 48477" transform="translate(-10824 -17679)">
      <g id="그룹_48475" data-name="그룹 48475" transform="translate(0 10.833)">
        <path id="사각형_18230" data-name="사각형 18230" d="M2.5,1.667a.834.834,0,0,0-.833.833V6.667A.834.834,0,0,0,2.5,7.5H6.667A.834.834,0,0,0,7.5,6.667V2.5a.834.834,0,0,0-.833-.833H2.5M2.5,0H6.667a2.5,2.5,0,0,1,2.5,2.5V6.667a2.5,2.5,0,0,1-2.5,2.5H2.5A2.5,2.5,0,0,1,0,6.667V2.5A2.5,2.5,0,0,1,2.5,0Z" fill="#fff"/>
        <path id="사각형_18231" data-name="사각형 18231" d="M2.5,1.667a.834.834,0,0,0-.833.833V6.667A.834.834,0,0,0,2.5,7.5H6.667A.834.834,0,0,0,7.5,6.667V2.5a.834.834,0,0,0-.833-.833H2.5M2.5,0H6.667a2.5,2.5,0,0,1,2.5,2.5V6.667a2.5,2.5,0,0,1-2.5,2.5H2.5A2.5,2.5,0,0,1,0,6.667V2.5A2.5,2.5,0,0,1,2.5,0Z" transform="translate(10.833)" fill="#fff"/>
      </g>
      <g id="그룹_48476" data-name="그룹 48476">
        <path id="사각형_18229" data-name="사각형 18229" d="M2.5,1.667a.834.834,0,0,0-.833.833V6.667A.834.834,0,0,0,2.5,7.5H6.667A.834.834,0,0,0,7.5,6.667V2.5a.834.834,0,0,0-.833-.833H2.5M2.5,0H6.667a2.5,2.5,0,0,1,2.5,2.5V6.667a2.5,2.5,0,0,1-2.5,2.5H2.5A2.5,2.5,0,0,1,0,6.667V2.5A2.5,2.5,0,0,1,2.5,0Z" fill="#fff"/>
        <path id="사각형_18232" data-name="사각형 18232" d="M2.5,1.667a.834.834,0,0,0-.833.833V6.667A.834.834,0,0,0,2.5,7.5H6.667A.834.834,0,0,0,7.5,6.667V2.5a.834.834,0,0,0-.833-.833H2.5M2.5,0H6.667a2.5,2.5,0,0,1,2.5,2.5V6.667a2.5,2.5,0,0,1-2.5,2.5H2.5A2.5,2.5,0,0,1,0,6.667V2.5A2.5,2.5,0,0,1,2.5,0Z" transform="translate(10.833)" fill="#fff"/>
      </g>
    </g>
  </g>
</svg>
