<svg xmlns="http://www.w3.org/2000/svg" xmlns:xlink="http://www.w3.org/1999/xlink" width="20" height="20" viewBox="0 0 20 20">
  <defs>
    <clipPath id="clip-path">
      <rect id="사각형_18235" data-name="사각형 18235" width="20" height="20" transform="translate(-10866 -17685)" fill="none"/>
    </clipPath>
  </defs>
  <g id="ic_filter_grid_on" transform="translate(10866 17685)" clip-path="url(#clip-path)">
    <path id="사각형_18230" data-name="사각형 18230" d="M2.5,1.667a.834.834,0,0,0-.833.833V6.667A.834.834,0,0,0,2.5,7.5H6.667A.834.834,0,0,0,7.5,6.667V2.5a.834.834,0,0,0-.833-.833H2.5M2.5,0H6.667a2.5,2.5,0,0,1,2.5,2.5V6.667a2.5,2.5,0,0,1-2.5,2.5H2.5A2.5,2.5,0,0,1,0,6.667V2.5A2.5,2.5,0,0,1,2.5,0Z" transform="translate(-10866 -17674.166)" fill="#fff"/>
    <path id="사각형_18229" data-name="사각형 18229" d="M2.5,1.667a.834.834,0,0,0-.833.833V6.667A.834.834,0,0,0,2.5,7.5H6.667A.834.834,0,0,0,7.5,6.667V2.5a.834.834,0,0,0-.833-.833H2.5M2.5,0H6.667a2.5,2.5,0,0,1,2.5,2.5V6.667a2.5,2.5,0,0,1-2.5,2.5H2.5A2.5,2.5,0,0,1,0,6.667V2.5A2.5,2.5,0,0,1,2.5,0Z" transform="translate(-10866 -17685)" fill="#fff"/>
    <path id="사각형_18235-2" data-name="사각형 18235" d="M2.5,1.667a.834.834,0,0,0-.833.833v15a.834.834,0,0,0,.833.833H6.667A.834.834,0,0,0,7.5,17.5V2.5a.834.834,0,0,0-.833-.833H2.5M2.5,0H6.667a2.5,2.5,0,0,1,2.5,2.5v15a2.5,2.5,0,0,1-2.5,2.5H2.5A2.5,2.5,0,0,1,0,17.5V2.5A2.5,2.5,0,0,1,2.5,0Z" transform="translate(-10855.167 -17685)" fill="#fff"/>
  </g>
</svg>
