<svg xmlns="http://www.w3.org/2000/svg" width="50" height="50" viewBox="0 0 50 50">
  <g id="ic_guest_active" transform="translate(-63 -31)">
    <g id="그룹_49497" data-name="그룹 49497" transform="translate(-967 -409)">
      <g id="그룹_49497-2" data-name="그룹 49497" transform="translate(8.505 10.258)">
        <path id="패스_37123" data-name="패스 37123" d="M31.431,9.291A9.291,9.291,0,1,1,22.14,0a9.291,9.291,0,0,1,9.291,9.291" transform="translate(1023.474 435)" fill="#b3e4d9"/>
        <path id="패스_37124" data-name="패스 37124" d="M26.729,59.16H3.509A3.509,3.509,0,0,1,0,55.651V50.326a12,12,0,0,1,12-12H18.24a12,12,0,0,1,12,12v5.326a3.509,3.509,0,0,1-3.509,3.509" transform="translate(1030.495 414.055)" fill="#b3e4d9"/>
      </g>
      <g id="그룹_49498" data-name="그룹 49498" transform="translate(9.37 10.633)">
        <path id="패스_37125" data-name="패스 37125" d="M54.2,46.613a6.774,6.774,0,0,1-4.422-1.642,1.52,1.52,0,0,0-1.968,0,6.774,6.774,0,0,1-4.422,1.642,6.625,6.625,0,0,1-1.32-.133,1,1,0,0,0-1.208.966v5.1C40.863,60.886,48.8,62.9,48.8,62.9s7.934-2,7.934-10.358v-5.1a1,1,0,0,0-1.207-.966,6.625,6.625,0,0,1-1.32.133" transform="translate(1012.655 415.524)" fill="#18ac8d"/>
        <path id="패스_37127" data-name="패스 37127" d="M-1.6-4.6v.108H-.2V-4.6a1.767,1.767,0,0,1,1-1.742A2.3,2.3,0,0,0,2.075-8.421c0-1.43-1.117-2.331-2.739-2.331A2.47,2.47,0,0,0-3.391-8.313h1.5A1.17,1.17,0,0,1-.676-9.5,1.1,1.1,0,0,1,.5-8.4,1.59,1.59,0,0,1-.4-7.064C-1.157-6.6-1.589-6.127-1.6-4.6Zm.745,2.763a.944.944,0,0,0,.925-.937A.941.941,0,0,0-.856-3.7a.936.936,0,0,0-.937.925A.938.938,0,0,0-.856-1.838Z" transform="translate(1062.11 475.818)" fill="#fff"/>
      </g>
    </g>
    <rect id="사각형_18642" data-name="사각형 18642" width="50" height="50" transform="translate(63 31)" fill="none"/>
  </g>
</svg>
