<svg xmlns="http://www.w3.org/2000/svg" width="26" height="26" viewBox="0 0 26 26">
  <g id="ic_game" transform="translate(-1828 -873)">
    <rect id="사각형_18236" data-name="사각형 18236" width="26" height="26" transform="translate(1828 873)" fill="none"/>
    <g id="그룹_49446" data-name="그룹 49446" transform="translate(0 59.991)">
      <path id="패스_37118" data-name="패스 37118" d="M16.018,4.5H8.434A1.081,1.081,0,0,0,7.355,5.584V23.351a1.066,1.066,0,0,0,.17.579l-.4.088A1.078,1.078,0,0,1,5.84,23.2L2.026,5.844a1.077,1.077,0,0,1,.822-1.286L14.37,2.026a1.076,1.076,0,0,1,1.284.822Z" transform="translate(1828.691 812.795)" fill="none" stroke="#18ac8d" stroke-linecap="round" stroke-linejoin="round" stroke-width="1.6"/>
      <path id="패스_37120" data-name="패스 37120" d="M38.352,13.549V31.316a1.079,1.079,0,0,1-1.078,1.078h-11.8A1.081,1.081,0,0,1,24.4,31.316V13.549a1.081,1.081,0,0,1,1.078-1.081h11.8A1.081,1.081,0,0,1,38.352,13.549Z" transform="translate(1811.648 804.83)" fill="none" stroke="#18ac8d" stroke-linecap="round" stroke-linejoin="round" stroke-width="1.6"/>
      <path id="패스_37122" data-name="패스 37122" d="M42.633,39.06h-.022a2.072,2.072,0,1,0-3.942,0h-.022A2.072,2.072,0,1,0,40.641,41.7a2.072,2.072,0,1,0,1.992-2.637Z" transform="translate(1802.382 786.658)" fill="none" stroke="#18ac8d" stroke-linecap="round" stroke-linejoin="round" stroke-width="1.2"/>
      <line id="선_748" data-name="선 748" x1="3.826" transform="translate(1841.11 832.068)" fill="none" stroke="#18ac8d" stroke-linecap="round" stroke-linejoin="round" stroke-width="1.2"/>
    </g>
  </g>
</svg>
