<svg xmlns="http://www.w3.org/2000/svg" width="16" height="16" viewBox="0 0 16 16">
  <g id="ic_medal_01" transform="translate(-444 -567)">
    <rect id="사각형_18181" data-name="사각형 18181" width="16" height="16" transform="translate(444 567)" fill="none"/>
    <path id="패스_36720" data-name="패스 36720" d="M10.077,5.8A6.077,6.077,0,1,1,4,11.875,6.077,6.077,0,0,1,10.077,5.8Zm0,2.659-1,2.036-2.246.326L8.451,12.4,8.068,14.64l2.009-1.056,2.009,1.056L11.7,12.4l1.625-1.584-2.246-.326ZM10.837,2h3.8V4.279L13.6,5.143a7.547,7.547,0,0,0-2.762-.827ZM9.317,2V4.316a7.547,7.547,0,0,0-2.761.826L5.519,4.279V2Z" transform="translate(442 565.001)" fill="#aaa5a5"/>
  </g>
</svg>
