<svg xmlns="http://www.w3.org/2000/svg" width="26" height="26" viewBox="0 0 26 26">
  <g id="ic_order" transform="translate(-1828 -873)">
    <path id="패스_36739" data-name="패스 36739" d="M19,22H5a3,3,0,0,1-3-3V3A1,1,0,0,1,3,2H17a1,1,0,0,1,1,1V15h4v4A3,3,0,0,1,19,22Zm-1-5v2a1,1,0,0,0,2,0V17Zm-2,3V4H4V19a1,1,0,0,0,1,1ZM6,7h8V9H6Zm0,4h8v2H6Zm0,4h5v2H6Z" transform="translate(1829 874)" fill="#fff"/>
    <rect id="사각형_18236" data-name="사각형 18236" width="26" height="26" transform="translate(1828 873)" fill="none"/>
  </g>
</svg>
