<svg xmlns="http://www.w3.org/2000/svg" width="32" height="32" viewBox="0 0 32 32">
  <g id="ic_rewind_15s" transform="translate(-1763 -726)">
    <rect id="사각형_18464" data-name="사각형 18464" width="32" height="32" transform="translate(1763 726)" fill="none" opacity="0"/>
    <g id="그룹_48921" data-name="그룹 48921" transform="translate(1767 731.501)">
      <path id="패스_37110" data-name="패스 37110" d="M7.349,10.2a.75.75,0,0,1-1.05.15l-6-4.5a.75.75,0,0,1,0-1.2l6-4.5a.75.75,0,1,1,.9,1.2L3,4.5H15.751a8.249,8.249,0,0,1,0,16.5H14.707a.75.75,0,1,1,0-1.5h1.045a6.749,6.749,0,0,0,0-13.5H3l4.2,3.15A.748.748,0,0,1,7.349,10.2" transform="translate(0 0)" fill="#888"/>
      <path id="패스_37111" data-name="패스 37111" d="M-4-10.605H-5.373L-7.339-9.331v1.307l1.856-1.186h.044v6.557H-4ZM.755-2.544a2.706,2.706,0,0,0,2.91-2.724A2.522,2.522,0,0,0,1.1-7.9a2.085,2.085,0,0,0-1.538.6H-.519l.242-2.109H3.249v-1.2h-4.7l-.483,4.5H-.606A1.34,1.34,0,0,1,.712-6.783a1.508,1.508,0,0,1,1.571,1.56A1.477,1.477,0,0,1,.755-3.7,1.3,1.3,0,0,1-.65-4.806H-2.045A2.528,2.528,0,0,0,.755-2.544Z" transform="translate(7.339 23.541)" fill="#888"/>
    </g>
  </g>
</svg>
