<svg xmlns="http://www.w3.org/2000/svg" width="50" height="50" viewBox="0 0 50 50">
  <g id="ic_user" transform="translate(-63 -31)">
    <g id="그룹_49497" data-name="그룹 49497" transform="translate(-967 -409)">
      <g id="그룹_49497-2" data-name="그룹 49497" transform="translate(8.505 10.258)">
        <path id="패스_37123" data-name="패스 37123" d="M31.431,9.291A9.291,9.291,0,1,1,22.14,0a9.291,9.291,0,0,1,9.291,9.291" transform="translate(1023.474 435)" fill="#fff"/>
        <path id="패스_37124" data-name="패스 37124" d="M26.729,59.16H3.509A3.509,3.509,0,0,1,0,55.651V50.326a12,12,0,0,1,12-12H18.24a12,12,0,0,1,12,12v5.326a3.509,3.509,0,0,1-3.509,3.509" transform="translate(1030.495 414.055)" fill="#fff"/>
      </g>
      <g id="그룹_49498" data-name="그룹 49498" transform="translate(9.37 10.633)">
        <path id="패스_37125" data-name="패스 37125" d="M54.2,46.613a6.774,6.774,0,0,1-4.422-1.642,1.52,1.52,0,0,0-1.968,0,6.774,6.774,0,0,1-4.422,1.642,6.625,6.625,0,0,1-1.32-.133,1,1,0,0,0-1.208.966v5.1C40.863,60.886,48.8,62.9,48.8,62.9s7.934-2,7.934-10.358v-5.1a1,1,0,0,0-1.207-.966,6.625,6.625,0,0,1-1.32.133" transform="translate(1012.655 415.524)" fill="#a2a2a2"/>
        <path id="패스_37126" data-name="패스 37126" d="M54.808,69.993h-.025a1,1,0,0,1-.711-.323l-2.5-2.715A1,1,0,1,1,53.046,65.6l1.8,1.954L58.756,63.7a1,1,0,0,1,1.4,1.425l-4.65,4.581a1,1,0,0,1-.7.288" transform="translate(1005.568 402.575)" fill="#fff"/>
      </g>
    </g>
    <rect id="사각형_18642" data-name="사각형 18642" width="50" height="50" transform="translate(63 31)" fill="none"/>
  </g>
</svg>
